<svg version="1.1" id="Layer_1" xmlns="http://www.w3.org/2000/svg" xmlns:xlink="http://www.w3.org/1999/xlink" x="0px" y="0px"
	 width="100%" viewBox="0 0 512 512" enable-background="new 0 0 512 512" xml:space="preserve">
<path fill="#685E67" opacity="1.000000" stroke="none" 
	d="
M429.000000,513.000000 
	C302.310699,513.000000 175.621384,513.000000 48.603455,512.652954 
	C38.079819,506.609100 35.780865,497.759583 35.807858,486.504272 
	C36.112793,359.346222 36.000053,232.187195 36.008949,105.028427 
	C36.009109,102.698463 36.127132,100.368515 36.646889,98.036835 
	C51.429420,98.035271 65.755226,98.035446 79.933289,98.338501 
	C64.149734,115.501076 68.017532,140.484467 87.819733,150.536728 
	C103.521873,158.507660 123.834717,151.883621 130.973114,136.464355 
	C132.939117,132.217682 131.888504,128.221848 128.227188,126.020668 
	C124.596924,123.838165 120.530327,124.833954 117.764542,128.610352 
	C116.685730,130.083344 115.800385,131.722549 114.583893,133.066010 
	C108.769341,139.487411 98.840065,140.264206 91.974045,134.925262 
	C85.313744,129.746277 83.576950,120.110764 88.009293,112.929192 
	C92.151909,106.217056 100.397476,103.271599 106.937416,106.456612 
	C104.138535,109.629005 101.410309,112.738983 98.662674,115.831711 
	C93.842384,121.257393 93.337898,125.901207 97.220978,129.267227 
	C100.962784,132.510788 105.411789,131.511581 110.027428,126.341019 
	C114.571571,121.250542 119.100128,116.145927 123.603935,111.019753 
	C127.977119,106.042229 128.142212,103.875977 125.189102,98.127853 
	C229.316223,98.078384 332.956604,98.084999 436.596832,97.936295 
	C441.860229,97.928741 442.040375,100.596870 442.038971,104.513161 
	C441.992462,233.314331 441.979095,362.115540 442.049744,490.916687 
	C442.054291,499.186920 438.583344,505.250610 432.082642,509.955994 
	C430.926453,510.792938 430.021179,511.976532 429.000000,513.000000 
M269.501678,379.228699 
	C273.824554,382.047577 278.114716,384.918182 282.477386,387.674072 
	C290.405182,392.682159 296.013824,391.111786 300.430054,382.670074 
	C303.901459,376.034485 307.351440,369.387024 310.732849,362.705292 
	C313.132996,357.962585 317.012695,356.094025 322.168915,356.378326 
	C329.981110,356.809021 337.792908,357.272186 345.610626,357.570740 
	C352.838806,357.846771 357.774750,353.085510 357.574524,345.908539 
	C357.360992,338.255310 357.008453,330.598450 356.425079,322.965485 
	C355.979462,317.134735 357.987427,313.012939 363.314087,310.384705 
	C370.177246,306.998322 376.994202,303.507782 383.723724,299.863892 
	C390.935608,295.958740 392.425293,290.155121 388.091248,283.163208 
	C384.143768,276.794983 380.146820,270.451172 375.957092,264.241364 
	C372.676392,259.378937 372.545013,254.820236 375.867767,249.909485 
	C380.065643,243.705353 384.050873,237.353729 388.007141,230.990677 
	C392.497040,223.769394 390.969696,218.026993 383.439545,213.984467 
	C376.549866,210.285797 369.578613,206.736664 362.602966,203.201248 
	C358.048370,200.892868 356.132843,197.139008 356.358002,192.207352 
	C356.714813,184.391754 357.191254,176.581696 357.574738,168.767227 
	C357.931152,161.504639 353.311523,156.274475 346.301971,156.403564 
	C338.813812,156.541504 331.323486,156.925522 323.851013,157.445267 
	C316.294281,157.970871 313.489075,156.556396 309.917328,149.683853 
	C306.463654,143.038513 303.172791,136.304733 299.568573,129.742599 
	C296.211700,123.630714 290.491882,121.690170 284.825836,124.994270 
	C279.097656,128.334595 273.711456,132.261429 267.504913,136.182465 
	C260.437164,142.144577 253.618973,141.885788 246.359024,136.122086 
	C241.558426,132.310867 236.110840,129.295944 230.861938,126.072670 
	C223.888916,121.790604 218.024948,123.357864 214.199783,130.515182 
	C210.747513,136.974792 207.279572,143.435883 204.132416,150.045761 
	C201.323441,155.945374 196.932312,158.312790 190.496536,157.831039 
	C183.194672,157.284439 175.866730,157.004044 168.544846,156.828827 
	C160.398773,156.633881 156.601364,160.499557 156.817093,168.732376 
	C157.004593,175.887833 157.256409,183.051605 157.824753,190.184204 
	C158.352020,196.801285 156.012894,201.352615 149.884933,204.231354 
	C143.410736,207.272751 137.123886,210.717697 130.792542,214.057175 
	C123.342781,217.986588 121.728157,223.858994 126.175636,231.020844 
	C129.513412,236.395691 132.638184,241.958984 136.504608,246.935898 
	C141.972397,253.974136 141.723465,260.316193 136.366669,267.269257 
	C132.519287,272.263123 129.374588,277.810150 126.054756,283.195648 
	C121.780617,290.129303 123.390968,296.017517 130.572754,299.829254 
	C137.042328,303.262939 143.499954,306.736053 150.108749,309.885559 
	C156.025040,312.705017 158.308655,317.153778 157.831818,323.563599 
	C157.288559,330.866180 156.995209,338.193481 156.818069,345.515472 
	C156.626572,353.430603 160.470474,357.344727 168.304459,357.166992 
	C175.959320,356.993317 183.612656,356.606842 191.256653,356.147400 
	C197.069504,355.798004 201.167038,358.033142 203.779114,363.295746 
	C207.109222,370.005066 210.570450,376.651398 214.085800,383.266113 
	C218.030411,390.688629 223.913574,392.268066 231.094193,387.797852 
	C237.595978,383.750244 244.038925,379.604218 250.428421,375.381470 
	C254.828644,372.473419 259.109528,372.433319 263.487152,375.303467 
	C265.293884,376.488007 267.133667,377.622070 269.501678,379.228699 
M95.732903,425.254791 
	C94.159233,427.785767 92.244789,430.170807 91.085121,432.879059 
	C88.886604,438.013428 90.566849,442.385101 94.957878,444.141846 
	C99.198814,445.838531 102.421722,443.931183 105.342995,439.032257 
	C106.671593,436.804230 108.962448,434.477386 111.316582,433.690521 
	C114.883385,432.498260 118.342613,433.941193 119.820145,437.839111 
	C121.508537,442.293365 118.298630,443.740723 114.983032,444.919403 
	C111.218529,446.257660 107.360115,447.358856 103.669914,448.873444 
	C95.405594,452.265472 90.656395,458.518677 89.648026,467.391754 
	C88.957771,473.465790 92.080780,477.006073 98.156975,477.073212 
	C108.653404,477.189209 119.152473,477.165344 129.649536,477.084808 
	C135.304672,477.041443 138.757492,473.905457 138.612961,469.249756 
	C138.474625,464.793701 135.142471,461.967529 129.707550,461.860352 
	C125.397064,461.775360 121.083565,461.843262 116.771408,461.843262 
	C120.104362,459.532471 123.533379,458.190094 126.667160,456.345978 
	C134.465118,451.757263 137.379349,444.740021 135.454453,435.950256 
	C131.486267,417.830017 111.039658,411.987885 95.732903,425.254791 
M387.500000,481.915161 
	C396.664612,481.904205 405.833435,482.058350 414.992462,481.826935 
	C421.603271,481.659851 424.757385,478.166473 424.004517,472.572998 
	C423.428284,468.291809 420.216461,466.025330 414.321136,466.016418 
	C389.826355,465.979309 365.331482,465.997681 340.836639,466.000092 
	C338.504089,466.000305 336.167603,465.950195 333.839813,466.064301 
	C329.225708,466.290466 326.812866,469.222015 326.352692,473.381775 
	C325.912598,477.360138 328.407440,480.018768 332.112518,481.098572 
	C334.304779,481.737488 336.703094,481.872559 339.010132,481.881744 
	C354.839874,481.944885 370.670013,481.914795 387.500000,481.915161 
M165.514404,455.150085 
	C168.982864,451.621582 172.158524,447.721649 176.013184,444.683075 
	C179.052780,442.286987 180.818726,439.753418 180.811630,435.952179 
	C180.805740,432.786285 180.933853,429.613342 180.766556,426.456024 
	C180.460770,420.685211 177.709488,418.009766 171.907516,417.917297 
	C165.077332,417.808411 158.243362,417.826691 151.412460,417.908691 
	C145.717636,417.977020 142.263641,421.017365 142.355637,425.659790 
	C142.446869,430.263245 145.885422,433.062531 151.676163,433.152313 
	C155.431763,433.210571 159.188980,433.163300 163.943176,433.163300 
	C162.454559,434.855072 161.800735,435.746704 161.002899,436.482025 
	C152.183838,444.609741 147.277679,454.742676 145.488831,466.503845 
	C144.640701,472.080078 146.874100,476.066956 151.408051,476.929321 
	C156.222382,477.845062 159.536789,474.834930 160.924149,469.037231 
	C161.999466,464.543579 163.708298,460.201538 165.514404,455.150085 
M223.066742,438.579468 
	C225.064270,435.316772 227.355957,432.194214 228.991867,428.759277 
	C231.581207,423.322327 227.382675,417.121246 221.586258,418.168793 
	C219.048416,418.627472 216.202316,420.839508 214.714874,423.068604 
	C207.233887,434.279694 200.150650,445.756439 192.938873,457.146942 
	C191.158737,459.958527 189.225479,462.696411 187.709900,465.646606 
	C185.623230,469.708435 186.848465,474.140137 190.493958,476.057159 
	C194.459473,478.142487 197.913208,477.149872 200.652924,473.702209 
	C201.580475,472.534912 202.319611,471.215942 203.123672,469.952789 
	C209.648254,459.703003 216.167801,449.449982 223.066742,438.579468 
M251.288315,473.904999 
	C253.625732,476.860413 256.949219,478.255676 260.064514,476.423920 
	C262.282623,475.119781 264.788666,472.057556 264.857513,469.712097 
	C265.291534,454.927948 265.248322,440.122009 265.000305,425.329346 
	C264.897461,419.193817 258.715149,415.921967 253.528015,419.088043 
	C250.148148,421.151031 246.947311,423.655792 244.106155,426.415497 
	C240.512329,429.906342 240.994308,436.065826 245.430161,437.845673 
	C250.028641,439.690735 249.939590,442.722656 249.888840,446.438477 
	C249.795776,453.253967 249.787048,460.073029 249.909714,466.887604 
	C249.947693,468.997559 250.525223,471.097748 251.288315,473.904999 
M298.002777,467.174072 
	C298.000916,453.674927 298.224609,440.168732 297.805511,426.682556 
	C297.722412,424.008118 295.777649,420.231689 293.590118,419.108887 
	C291.405792,417.987640 287.576508,418.959839 284.950562,420.112640 
	C282.144135,421.344696 279.744965,423.694061 277.446045,425.851898 
	C273.071198,429.958374 273.859741,436.248199 279.346466,438.544647 
	C282.395020,439.820618 282.725708,441.628876 282.706055,444.278076 
	C282.647980,452.110443 282.635254,459.944153 282.712769,467.776245 
	C282.772461,473.806519 285.402191,476.986572 290.138977,477.036438 
	C294.851715,477.086060 297.444427,474.133881 298.002777,467.174072 
M341.570190,436.030548 
	C339.573547,436.036133 337.574188,435.976776 335.580780,436.059875 
	C330.400696,436.275879 326.275513,439.758362 326.214386,443.895172 
	C326.153259,448.031281 330.260193,451.748932 335.410309,451.887451 
	C341.229919,452.044006 347.056641,451.944397 352.880249,451.942749 
	C361.199707,451.940430 369.522369,452.064728 377.837524,451.871033 
	C384.073914,451.725769 387.149750,448.818054 387.053589,443.771179 
	C386.960999,438.913116 383.845459,436.118195 377.991547,436.069000 
	C366.178650,435.969757 354.364319,436.033936 341.570190,436.030548 
z"/>
<path fill="#554E55" opacity="1.000000" stroke="none" 
	d="
M429.468689,513.000000 
	C430.021179,511.976532 430.926453,510.792938 432.082642,509.955994 
	C438.583344,505.250610 442.054291,499.186920 442.049744,490.916687 
	C441.979095,362.115540 441.992462,233.314331 442.038971,104.513161 
	C442.040375,100.596870 441.860229,97.928741 436.596832,97.936295 
	C332.956604,98.084999 229.316223,98.078384 124.887474,97.993332 
	C109.893265,86.523697 95.543541,86.573364 80.081032,98.035622 
	C65.755226,98.035446 51.429420,98.035271 36.581543,97.569473 
	C36.090858,86.709633 36.122238,76.315414 36.609581,65.952194 
	C171.217072,65.997009 305.368622,66.011124 439.520142,66.018173 
	C440.350708,66.018211 441.181305,65.919952 442.474731,65.938797 
	C454.576965,66.013885 466.216370,66.017792 477.908905,66.486282 
	C477.976624,209.141434 478.000305,351.332001 477.979431,493.522583 
	C477.978333,500.854736 474.667389,506.478729 468.375977,510.364868 
	C467.409973,510.961548 466.783508,512.107910 466.000000,513.000000 
	C453.979095,513.000000 441.958221,513.000000 429.468689,513.000000 
z"/>
<path fill="#FB3A82" opacity="1.000000" stroke="none" 
	d="
M442.011871,65.867599 
	C441.181305,65.919952 440.350708,66.018211 439.520142,66.018173 
	C305.368622,66.011124 171.217072,65.997009 36.561920,65.489159 
	C36.038837,50.838848 36.224846,36.678223 35.925591,22.527855 
	C35.735268,13.528599 39.216934,7.064766 47.149181,2.884252 
	C47.630199,2.630743 47.725319,1.645022 48.000000,1.000000 
	C173.688675,1.000000 299.377350,1.000000 425.803101,1.212663 
	C437.480255,5.689207 442.476776,13.533214 442.102448,25.411247 
	C441.677795,38.884266 442.009155,52.381111 442.011871,65.867599 
M151.462784,41.058453 
	C158.318359,40.848465 161.629105,38.410908 161.660583,33.550262 
	C161.692352,28.644182 158.173050,26.004534 151.541061,25.960123 
	C144.508881,25.913031 141.007828,28.430897 141.017838,33.528141 
	C141.027252,38.323376 144.206406,40.825603 151.462784,41.058453 
M84.755592,26.189020 
	C83.766945,26.115475 82.779213,25.995090 81.789505,25.975815 
	C74.056129,25.825214 70.092255,28.384720 70.086464,33.507744 
	C70.080490,38.798420 74.234299,41.313068 82.183342,41.075691 
	C86.494881,40.946938 89.716064,39.295414 90.641273,34.950111 
	C91.526611,30.792051 89.377670,27.991402 84.755592,26.189020 
M120.678047,40.776962 
	C126.059784,37.579559 127.563713,33.461815 124.820694,29.434353 
	C121.718788,24.879944 110.513229,24.183233 107.471336,28.729330 
	C106.190491,30.643549 105.448250,34.036583 106.290031,35.954803 
	C107.231689,38.100639 110.032555,39.925529 112.422745,40.795540 
	C114.622597,41.596264 117.351257,40.944168 120.678047,40.776962 
z"/>
<path fill="#000000" opacity="1.000000" stroke="none" 
	d="
M466.468658,513.000000 
	C466.783508,512.107910 467.409973,510.961548 468.375977,510.364868 
	C474.667389,506.478729 477.978333,500.854736 477.979431,493.522583 
	C478.000305,351.332001 477.976624,209.141434 477.969238,66.016418 
	C477.984924,51.009922 477.751801,36.932091 478.088470,22.867897 
	C478.306915,13.742969 474.981964,7.104581 466.852386,2.876971 
	C466.372620,2.627486 466.275299,1.642648 466.000000,0.999999 
	C481.655365,1.000000 497.310699,1.000000 512.959045,1.000002 
	C512.952026,171.666672 512.952026,342.333344 512.952026,513.000000 
	C497.581818,513.000000 482.259552,513.000000 466.468658,513.000000 
z"/>
<path fill="#000000" opacity="1.000000" stroke="none" 
	d="
M47.531342,1.000000 
	C47.725319,1.645022 47.630199,2.630743 47.149181,2.884252 
	C39.216934,7.064766 35.735268,13.528599 35.925591,22.527855 
	C36.224846,36.678223 36.038837,50.838848 36.105957,65.458160 
	C36.122238,76.315414 36.090858,86.709633 36.124817,97.571205 
	C36.127132,100.368515 36.009109,102.698463 36.008949,105.028427 
	C36.000053,232.187195 36.112793,359.346222 35.807858,486.504272 
	C35.780865,497.759583 38.079819,506.609100 48.137413,512.652954 
	C32.344650,513.000000 16.689301,513.000000 1.040937,513.000000 
	C1.047923,342.333313 1.047923,171.666656 1.047923,1.000000 
	C16.418125,1.000000 31.740404,1.000000 47.531342,1.000000 
z"/>
<path fill="#FB1466" opacity="1.000000" stroke="none" 
	d="
M465.531342,0.999999 
	C466.275299,1.642648 466.372620,2.627486 466.852386,2.876971 
	C474.981964,7.104581 478.306915,13.742969 478.088470,22.867897 
	C477.751801,36.932091 477.984924,51.009922 477.916077,65.551834 
	C466.216370,66.017792 454.576965,66.013885 442.474731,65.938797 
	C442.009155,52.381111 441.677795,38.884266 442.102448,25.411247 
	C442.476776,13.533214 437.480255,5.689207 426.270081,1.212663 
	C439.020905,1.000000 452.041779,1.000000 465.531342,0.999999 
z"/>
<path fill="#FB3B82" opacity="1.000000" stroke="none" 
	d="
M268.958435,378.779114 
	C267.133667,377.622070 265.293884,376.488007 263.487152,375.303467 
	C259.109528,372.433319 254.828644,372.473419 250.428421,375.381470 
	C244.038925,379.604218 237.595978,383.750244 231.094193,387.797852 
	C223.913574,392.268066 218.030411,390.688629 214.085800,383.266113 
	C210.570450,376.651398 207.109222,370.005066 203.779114,363.295746 
	C201.167038,358.033142 197.069504,355.798004 191.256653,356.147400 
	C183.612656,356.606842 175.959320,356.993317 168.304459,357.166992 
	C160.470474,357.344727 156.626572,353.430603 156.818069,345.515472 
	C156.995209,338.193481 157.288559,330.866180 157.831818,323.563599 
	C158.308655,317.153778 156.025040,312.705017 150.108749,309.885559 
	C143.499954,306.736053 137.042328,303.262939 130.572754,299.829254 
	C123.390968,296.017517 121.780617,290.129303 126.054756,283.195648 
	C129.374588,277.810150 132.519287,272.263123 136.366669,267.269257 
	C141.723465,260.316193 141.972397,253.974136 136.504608,246.935898 
	C132.638184,241.958984 129.513412,236.395691 126.175636,231.020844 
	C121.728157,223.858994 123.342781,217.986588 130.792542,214.057175 
	C137.123886,210.717697 143.410736,207.272751 149.884933,204.231354 
	C156.012894,201.352615 158.352020,196.801285 157.824753,190.184204 
	C157.256409,183.051605 157.004593,175.887833 156.817093,168.732376 
	C156.601364,160.499557 160.398773,156.633881 168.544846,156.828827 
	C175.866730,157.004044 183.194672,157.284439 190.496536,157.831039 
	C196.932312,158.312790 201.323441,155.945374 204.132416,150.045761 
	C207.279572,143.435883 210.747513,136.974792 214.199783,130.515182 
	C218.024948,123.357864 223.888916,121.790604 230.861938,126.072670 
	C236.110840,129.295944 241.558426,132.310867 246.359024,136.122086 
	C253.618973,141.885788 260.437164,142.144577 268.156738,136.159485 
	C270.523590,138.087936 272.630676,139.819031 273.875610,142.034576 
	C276.889252,147.397827 279.526642,152.974182 282.267334,158.488678 
	C284.793945,163.572449 288.528046,166.461304 294.529144,166.040512 
	C301.485962,165.552734 308.459900,165.157379 315.430908,165.065277 
	C322.388550,164.973358 326.015594,168.555710 325.938507,175.462479 
	C325.862579,182.266769 325.497192,189.078552 324.964264,195.863907 
	C324.463562,202.238449 327.346924,206.250809 332.852997,208.945801 
	C338.680756,211.798248 344.530762,214.640472 350.154999,217.864182 
	C356.637177,221.579666 357.864441,226.555313 354.056824,232.945068 
	C350.566437,238.802490 346.857239,244.532654 343.136475,250.248611 
	C340.171509,254.803452 340.156799,259.218140 343.145630,263.754272 
	C346.624146,269.033478 349.998779,274.381042 353.425293,279.694611 
	C358.135468,286.998718 356.938232,292.429749 349.338654,296.662262 
	C343.817505,299.737183 338.098969,302.460571 332.442657,305.289154 
	C327.346375,307.837646 324.553619,311.635345 324.970459,317.608002 
	C325.456055,324.564972 325.857697,331.539001 325.939178,338.509827 
	C326.020081,345.428284 322.399567,349.016479 315.456116,348.933014 
	C309.150940,348.857269 302.822815,348.595367 296.556396,347.929688 
	C288.904572,347.116821 284.553314,350.643188 281.280792,357.225983 
	C277.603027,364.623962 273.101562,371.612488 268.958435,378.779114 
M237.348526,254.848434 
	C224.624176,267.576111 211.849991,280.254547 199.200226,293.055908 
	C194.208557,298.107391 193.260025,305.638947 196.496750,311.491241 
	C199.733047,317.342743 206.280457,320.667358 213.031937,318.871399 
	C216.370819,317.983246 219.769608,315.873962 222.247650,313.416168 
	C252.654419,283.257843 282.897369,252.934357 313.172668,222.643570 
	C314.348114,221.467514 315.590790,220.304810 316.515442,218.941452 
	C319.990662,213.817307 320.382202,208.287781 317.613495,202.834702 
	C314.910553,197.511230 310.292786,194.821762 304.255829,194.673950 
	C299.031006,194.546051 295.116547,196.987854 291.546082,200.582626 
	C273.696533,218.553848 255.756607,236.435333 237.348526,254.848434 
M229.322021,207.410934 
	C226.705353,198.695755 220.449493,193.416779 212.300262,193.047226 
	C201.800385,192.571091 192.939133,201.107239 193.034393,211.606262 
	C193.127487,221.868195 201.978439,230.321198 212.149521,229.862000 
	C223.214600,229.362427 230.794174,219.919617 229.322021,207.410934 
M287.447174,292.081757 
	C282.467529,300.956757 283.329651,309.542084 289.828461,315.795258 
	C295.846191,321.585541 304.842041,322.692047 311.932983,318.309265 
	C318.470947,314.268341 321.638947,308.226288 320.805511,300.609131 
	C319.974487,293.014191 315.679321,287.604248 308.390930,285.187103 
	C300.226501,282.479431 293.361450,284.953644 287.447174,292.081757 
z"/>
<path fill="#FA1566" opacity="1.000000" stroke="none" 
	d="
M269.230042,379.003906 
	C273.101562,371.612488 277.603027,364.623962 281.280792,357.225983 
	C284.553314,350.643188 288.904572,347.116821 296.556396,347.929688 
	C302.822815,348.595367 309.150940,348.857269 315.456116,348.933014 
	C322.399567,349.016479 326.020081,345.428284 325.939178,338.509827 
	C325.857697,331.539001 325.456055,324.564972 324.970459,317.608002 
	C324.553619,311.635345 327.346375,307.837646 332.442657,305.289154 
	C338.098969,302.460571 343.817505,299.737183 349.338654,296.662262 
	C356.938232,292.429749 358.135468,286.998718 353.425293,279.694611 
	C349.998779,274.381042 346.624146,269.033478 343.145630,263.754272 
	C340.156799,259.218140 340.171509,254.803452 343.136475,250.248611 
	C346.857239,244.532654 350.566437,238.802490 354.056824,232.945068 
	C357.864441,226.555313 356.637177,221.579666 350.154999,217.864182 
	C344.530762,214.640472 338.680756,211.798248 332.852997,208.945801 
	C327.346924,206.250809 324.463562,202.238449 324.964264,195.863907 
	C325.497192,189.078552 325.862579,182.266769 325.938507,175.462479 
	C326.015594,168.555710 322.388550,164.973358 315.430908,165.065277 
	C308.459900,165.157379 301.485962,165.552734 294.529144,166.040512 
	C288.528046,166.461304 284.793945,163.572449 282.267334,158.488678 
	C279.526642,152.974182 276.889252,147.397827 273.875610,142.034576 
	C272.630676,139.819031 270.523590,138.087936 268.492035,136.033936 
	C273.711456,132.261429 279.097656,128.334595 284.825836,124.994270 
	C290.491882,121.690170 296.211700,123.630714 299.568573,129.742599 
	C303.172791,136.304733 306.463654,143.038513 309.917328,149.683853 
	C313.489075,156.556396 316.294281,157.970871 323.851013,157.445267 
	C331.323486,156.925522 338.813812,156.541504 346.301971,156.403564 
	C353.311523,156.274475 357.931152,161.504639 357.574738,168.767227 
	C357.191254,176.581696 356.714813,184.391754 356.358002,192.207352 
	C356.132843,197.139008 358.048370,200.892868 362.602966,203.201248 
	C369.578613,206.736664 376.549866,210.285797 383.439545,213.984467 
	C390.969696,218.026993 392.497040,223.769394 388.007141,230.990677 
	C384.050873,237.353729 380.065643,243.705353 375.867767,249.909485 
	C372.545013,254.820236 372.676392,259.378937 375.957092,264.241364 
	C380.146820,270.451172 384.143768,276.794983 388.091248,283.163208 
	C392.425293,290.155121 390.935608,295.958740 383.723724,299.863892 
	C376.994202,303.507782 370.177246,306.998322 363.314087,310.384705 
	C357.987427,313.012939 355.979462,317.134735 356.425079,322.965485 
	C357.008453,330.598450 357.360992,338.255310 357.574524,345.908539 
	C357.774750,353.085510 352.838806,357.846771 345.610626,357.570740 
	C337.792908,357.272186 329.981110,356.809021 322.168915,356.378326 
	C317.012695,356.094025 313.132996,357.962585 310.732849,362.705292 
	C307.351440,369.387024 303.901459,376.034485 300.430054,382.670074 
	C296.013824,391.111786 290.405182,392.682159 282.477386,387.674072 
	C278.114716,384.918182 273.824554,382.047577 269.230042,379.003906 
z"/>
<path fill="#F0EDF0" opacity="1.000000" stroke="none" 
	d="
M79.933289,98.338501 
	C95.543541,86.573364 109.893265,86.523697 124.400726,98.017792 
	C128.142212,103.875977 127.977119,106.042229 123.603935,111.019753 
	C119.100128,116.145927 114.571571,121.250542 110.027428,126.341019 
	C105.411789,131.511581 100.962784,132.510788 97.220978,129.267227 
	C93.337898,125.901207 93.842384,121.257393 98.662674,115.831711 
	C101.410309,112.738983 104.138535,109.629005 106.937416,106.456612 
	C100.397476,103.271599 92.151909,106.217056 88.009293,112.929192 
	C83.576950,120.110764 85.313744,129.746277 91.974045,134.925262 
	C98.840065,140.264206 108.769341,139.487411 114.583893,133.066010 
	C115.800385,131.722549 116.685730,130.083344 117.764542,128.610352 
	C120.530327,124.833954 124.596924,123.838165 128.227188,126.020668 
	C131.888504,128.221848 132.939117,132.217682 130.973114,136.464355 
	C123.834717,151.883621 103.521873,158.507660 87.819733,150.536728 
	C68.017532,140.484467 64.149734,115.501076 79.933289,98.338501 
z"/>
<path fill="#F93B82" opacity="1.000000" stroke="none" 
	d="
M95.986984,425.000366 
	C111.039658,411.987885 131.486267,417.830017 135.454453,435.950256 
	C137.379349,444.740021 134.465118,451.757263 126.667160,456.345978 
	C123.533379,458.190094 120.104362,459.532471 116.771408,461.843262 
	C121.083565,461.843262 125.397064,461.775360 129.707550,461.860352 
	C135.142471,461.967529 138.474625,464.793701 138.612961,469.249756 
	C138.757492,473.905457 135.304672,477.041443 129.649536,477.084808 
	C119.152473,477.165344 108.653404,477.189209 98.156975,477.073212 
	C92.080780,477.006073 88.957771,473.465790 89.648026,467.391754 
	C90.656395,458.518677 95.405594,452.265472 103.669914,448.873444 
	C107.360115,447.358856 111.218529,446.257660 114.983032,444.919403 
	C118.298630,443.740723 121.508537,442.293365 119.820145,437.839111 
	C118.342613,433.941193 114.883385,432.498260 111.316582,433.690521 
	C108.962448,434.477386 106.671593,436.804230 105.342995,439.032257 
	C102.421722,443.931183 99.198814,445.838531 94.957878,444.141846 
	C90.566849,442.385101 88.886604,438.013428 91.085121,432.879059 
	C92.244789,430.170807 94.159233,427.785767 95.986984,425.000366 
z"/>
<path fill="#444044" opacity="1.000000" stroke="none" 
	d="
M387.000000,481.914948 
	C370.670013,481.914795 354.839874,481.944885 339.010132,481.881744 
	C336.703094,481.872559 334.304779,481.737488 332.112518,481.098572 
	C328.407440,480.018768 325.912598,477.360138 326.352692,473.381775 
	C326.812866,469.222015 329.225708,466.290466 333.839813,466.064301 
	C336.167603,465.950195 338.504089,466.000305 340.836639,466.000092 
	C365.331482,465.997681 389.826355,465.979309 414.321136,466.016418 
	C420.216461,466.025330 423.428284,468.291809 424.004517,472.572998 
	C424.757385,478.166473 421.603271,481.659851 414.992462,481.826935 
	C405.833435,482.058350 396.664612,481.904205 387.000000,481.914948 
z"/>
<path fill="#F83B81" opacity="1.000000" stroke="none" 
	d="
M165.324951,455.471069 
	C163.708298,460.201538 161.999466,464.543579 160.924149,469.037231 
	C159.536789,474.834930 156.222382,477.845062 151.408051,476.929321 
	C146.874100,476.066956 144.640701,472.080078 145.488831,466.503845 
	C147.277679,454.742676 152.183838,444.609741 161.002899,436.482025 
	C161.800735,435.746704 162.454559,434.855072 163.943176,433.163300 
	C159.188980,433.163300 155.431763,433.210571 151.676163,433.152313 
	C145.885422,433.062531 142.446869,430.263245 142.355637,425.659790 
	C142.263641,421.017365 145.717636,417.977020 151.412460,417.908691 
	C158.243362,417.826691 165.077332,417.808411 171.907516,417.917297 
	C177.709488,418.009766 180.460770,420.685211 180.766556,426.456024 
	C180.933853,429.613342 180.805740,432.786285 180.811630,435.952179 
	C180.818726,439.753418 179.052780,442.286987 176.013184,444.683075 
	C172.158524,447.721649 168.982864,451.621582 165.324951,455.471069 
z"/>
<path fill="#F83B82" opacity="1.000000" stroke="none" 
	d="
M222.877808,438.888733 
	C216.167801,449.449982 209.648254,459.703003 203.123672,469.952789 
	C202.319611,471.215942 201.580475,472.534912 200.652924,473.702209 
	C197.913208,477.149872 194.459473,478.142487 190.493958,476.057159 
	C186.848465,474.140137 185.623230,469.708435 187.709900,465.646606 
	C189.225479,462.696411 191.158737,459.958527 192.938873,457.146942 
	C200.150650,445.756439 207.233887,434.279694 214.714874,423.068604 
	C216.202316,420.839508 219.048416,418.627472 221.586258,418.168793 
	C227.382675,417.121246 231.581207,423.322327 228.991867,428.759277 
	C227.355957,432.194214 225.064270,435.316772 222.877808,438.888733 
z"/>
<path fill="#FA3A82" opacity="1.000000" stroke="none" 
	d="
M251.072021,473.553711 
	C250.525223,471.097748 249.947693,468.997559 249.909714,466.887604 
	C249.787048,460.073029 249.795776,453.253967 249.888840,446.438477 
	C249.939590,442.722656 250.028641,439.690735 245.430161,437.845673 
	C240.994308,436.065826 240.512329,429.906342 244.106155,426.415497 
	C246.947311,423.655792 250.148148,421.151031 253.528015,419.088043 
	C258.715149,415.921967 264.897461,419.193817 265.000305,425.329346 
	C265.248322,440.122009 265.291534,454.927948 264.857513,469.712097 
	C264.788666,472.057556 262.282623,475.119781 260.064514,476.423920 
	C256.949219,478.255676 253.625732,476.860413 251.072021,473.553711 
z"/>
<path fill="#FA3A82" opacity="1.000000" stroke="none" 
	d="
M298.001068,467.630188 
	C297.444427,474.133881 294.851715,477.086060 290.138977,477.036438 
	C285.402191,476.986572 282.772461,473.806519 282.712769,467.776245 
	C282.635254,459.944153 282.647980,452.110443 282.706055,444.278076 
	C282.725708,441.628876 282.395020,439.820618 279.346466,438.544647 
	C273.859741,436.248199 273.071198,429.958374 277.446045,425.851898 
	C279.744965,423.694061 282.144135,421.344696 284.950562,420.112640 
	C287.576508,418.959839 291.405792,417.987640 293.590118,419.108887 
	C295.777649,420.231689 297.722412,424.008118 297.805511,426.682556 
	C298.224609,440.168732 298.000916,453.674927 298.001068,467.630188 
z"/>
<path fill="#444044" opacity="1.000000" stroke="none" 
	d="
M342.060394,436.030609 
	C354.364319,436.033936 366.178650,435.969757 377.991547,436.069000 
	C383.845459,436.118195 386.960999,438.913116 387.053589,443.771179 
	C387.149750,448.818054 384.073914,451.725769 377.837524,451.871033 
	C369.522369,452.064728 361.199707,451.940430 352.880249,451.942749 
	C347.056641,451.944397 341.229919,452.044006 335.410309,451.887451 
	C330.260193,451.748932 326.153259,448.031281 326.214386,443.895172 
	C326.275513,439.758362 330.400696,436.275879 335.580780,436.059875 
	C337.574188,435.976776 339.573547,436.036133 342.060394,436.030609 
z"/>
<path fill="#E11159" opacity="1.000000" stroke="none" 
	d="
M151.024017,41.058418 
	C144.206406,40.825603 141.027252,38.323376 141.017838,33.528141 
	C141.007828,28.430897 144.508881,25.913031 151.541061,25.960123 
	C158.173050,26.004534 161.692352,28.644182 161.660583,33.550262 
	C161.629105,38.410908 158.318359,40.848465 151.024017,41.058418 
z"/>
<path fill="#E01159" opacity="1.000000" stroke="none" 
	d="
M85.155960,26.296570 
	C89.377670,27.991402 91.526611,30.792051 90.641273,34.950111 
	C89.716064,39.295414 86.494881,40.946938 82.183342,41.075691 
	C74.234299,41.313068 70.080490,38.798420 70.086464,33.507744 
	C70.092255,28.384720 74.056129,25.825214 81.789505,25.975815 
	C82.779213,25.995090 83.766945,26.115475 85.155960,26.296570 
z"/>
<path fill="#E11159" opacity="1.000000" stroke="none" 
	d="
M120.262505,40.854515 
	C117.351257,40.944168 114.622597,41.596264 112.422745,40.795540 
	C110.032555,39.925529 107.231689,38.100639 106.290031,35.954803 
	C105.448250,34.036583 106.190491,30.643549 107.471336,28.729330 
	C110.513229,24.183233 121.718788,24.879944 124.820694,29.434353 
	C127.563713,33.461815 126.059784,37.579559 120.262505,40.854515 
z"/>
<path fill="#F2EFF2" opacity="1.000000" stroke="none" 
	d="
M237.598495,254.598404 
	C255.756607,236.435333 273.696533,218.553848 291.546082,200.582626 
	C295.116547,196.987854 299.031006,194.546051 304.255829,194.673950 
	C310.292786,194.821762 314.910553,197.511230 317.613495,202.834702 
	C320.382202,208.287781 319.990662,213.817307 316.515442,218.941452 
	C315.590790,220.304810 314.348114,221.467514 313.172668,222.643570 
	C282.897369,252.934357 252.654419,283.257843 222.247650,313.416168 
	C219.769608,315.873962 216.370819,317.983246 213.031937,318.871399 
	C206.280457,320.667358 199.733047,317.342743 196.496750,311.491241 
	C193.260025,305.638947 194.208557,298.107391 199.200226,293.055908 
	C211.849991,280.254547 224.624176,267.576111 237.598495,254.598404 
z"/>
<path fill="#F2ECF0" opacity="1.000000" stroke="none" 
	d="
M229.428162,207.807266 
	C230.794174,219.919617 223.214600,229.362427 212.149521,229.862000 
	C201.978439,230.321198 193.127487,221.868195 193.034393,211.606262 
	C192.939133,201.107239 201.800385,192.571091 212.300262,193.047226 
	C220.449493,193.416779 226.705353,198.695755 229.428162,207.807266 
z"/>
<path fill="#F2ECF0" opacity="1.000000" stroke="none" 
	d="
M287.670959,291.789032 
	C293.361450,284.953644 300.226501,282.479431 308.390930,285.187103 
	C315.679321,287.604248 319.974487,293.014191 320.805511,300.609131 
	C321.638947,308.226288 318.470947,314.268341 311.932983,318.309265 
	C304.842041,322.692047 295.846191,321.585541 289.828461,315.795258 
	C283.329651,309.542084 282.467529,300.956757 287.670959,291.789032 
z"/>
</svg>